<svg width="53" height="28" viewBox="0 0 53 28" fill="none" xmlns="http://www.w3.org/2000/svg">
<path fill-rule="evenodd" clip-rule="evenodd" d="M9.92676 0H39.8672V7.19717H47.0108L52.7725 16.8874V24.2324H50.0871C49.7005 24.2324 49.3871 23.919 49.3871 23.5324C49.3871 23.1458 49.7005 22.8324 50.0871 22.8324H51.3725V17.2721L46.2144 8.59715H39.8672V22.8324H41.649C42.0356 22.8324 42.349 23.1458 42.349 23.5324C42.349 23.919 42.0356 24.2324 41.649 24.2324H26.262C25.8754 24.2324 25.562 23.919 25.562 23.5324C25.562 23.1458 25.8754 22.8324 26.262 22.8324H38.4672V1.39998H11.3267V4.91902C11.3267 5.30561 11.0133 5.61901 10.6267 5.61901C10.2402 5.61901 9.92676 5.30561 9.92676 4.91902V0ZM10.6267 7.19717C11.0133 7.19717 11.3267 7.51056 11.3267 7.89716V13.6053C11.3267 13.9918 11.0133 14.3052 10.6267 14.3052C10.2402 14.3052 9.92676 13.9918 9.92676 13.6053V7.89716C9.92676 7.51056 10.2402 7.19717 10.6267 7.19717ZM10.6267 16.8761C11.0133 16.8761 11.3267 17.1895 11.3267 17.5761V22.8324H17.8239C18.2105 22.8324 18.5239 23.1458 18.5239 23.5324C18.5239 23.919 18.2105 24.2324 17.8239 24.2324H9.92676V17.5761C9.92676 17.1895 10.2402 16.8761 10.6267 16.8761Z" fill="#747F8B"/>
<path fill-rule="evenodd" clip-rule="evenodd" d="M5.21191 4.91923C5.21191 4.53263 5.52531 4.21924 5.9119 4.21924H16.8317C17.2183 4.21924 17.5317 4.53263 17.5317 4.91923C17.5317 5.30582 17.2183 5.61922 16.8317 5.61922H5.9119C5.52531 5.61922 5.21191 5.30582 5.21191 4.91923Z" fill="#69AFDC"/>
<path fill-rule="evenodd" clip-rule="evenodd" d="M0 9.13847C0 8.75187 0.313396 8.43848 0.69999 8.43848H7.4008C7.78739 8.43848 8.10079 8.75187 8.10079 9.13847C8.10079 9.52506 7.78739 9.83846 7.4008 9.83846H0.69999C0.313396 9.83846 0 9.52506 0 9.13847Z" fill="#69AFDC"/>
<path fill-rule="evenodd" clip-rule="evenodd" d="M6.45215 13.6053C6.45215 13.2187 6.76554 12.9053 7.15214 12.9053H22.291C22.6776 12.9053 22.991 13.2187 22.991 13.6053C22.991 13.9919 22.6776 14.3053 22.291 14.3053H7.15214C6.76554 14.3053 6.45215 13.9919 6.45215 13.6053Z" fill="#69AFDC"/>
<path fill-rule="evenodd" clip-rule="evenodd" d="M1.98535 17.5765C1.98535 17.1899 2.29875 16.8765 2.68534 16.8765H14.3497C14.7363 16.8765 15.0497 17.1899 15.0497 17.5765C15.0497 17.963 14.7363 18.2764 14.3497 18.2764H2.68534C2.29875 18.2764 1.98535 17.963 1.98535 17.5765Z" fill="#69AFDC"/>
<path fill-rule="evenodd" clip-rule="evenodd" d="M22.0434 26.5999C23.7374 26.5999 25.1106 25.2266 25.1106 23.5326C25.1106 21.8387 23.7374 20.4654 22.0434 20.4654C20.3494 20.4654 18.9762 21.8387 18.9762 23.5326C18.9762 25.2266 20.3494 26.5999 22.0434 26.5999ZM22.0434 27.9998C24.5105 27.9998 26.5106 25.9998 26.5106 23.5326C26.5106 21.0655 24.5105 19.0654 22.0434 19.0654C19.5762 19.0654 17.5762 21.0655 17.5762 23.5326C17.5762 25.9998 19.5762 27.9998 22.0434 27.9998Z" fill="#747F8B"/>
<path fill-rule="evenodd" clip-rule="evenodd" d="M45.8686 26.5999C47.5626 26.5999 48.9358 25.2266 48.9358 23.5326C48.9358 21.8387 47.5626 20.4654 45.8686 20.4654C44.1746 20.4654 42.8013 21.8387 42.8013 23.5326C42.8013 25.2266 44.1746 26.5999 45.8686 26.5999ZM45.8686 27.9998C48.3357 27.9998 50.3358 25.9998 50.3358 23.5326C50.3358 21.0655 48.3357 19.0654 45.8686 19.0654C43.4014 19.0654 41.4014 21.0655 41.4014 23.5326C41.4014 25.9998 43.4014 27.9998 45.8686 27.9998Z" fill="#747F8B"/>
</svg>
