<svg width="38" height="40" viewBox="0 0 38 40" fill="none" xmlns="http://www.w3.org/2000/svg">
<path fill-rule="evenodd" clip-rule="evenodd" d="M18.6655 6.93337C16.0145 6.93337 13.8655 9.0824 13.8655 11.7334C13.8655 14.3843 16.0145 16.5334 18.6655 16.5334C21.3165 16.5334 23.4655 14.3843 23.4655 11.7334C23.4655 11.1414 23.3586 10.5756 23.1635 10.0534C23.0604 9.77748 23.2004 9.47022 23.4764 9.36711C23.7523 9.26401 24.0595 9.4041 24.1626 9.68002C24.4017 10.3198 24.5322 11.012 24.5322 11.7334C24.5322 14.9735 21.9056 17.6001 18.6655 17.6001C15.4254 17.6001 12.7988 14.9735 12.7988 11.7334C12.7988 8.4933 15.4254 5.8667 18.6655 5.8667C19.7332 5.8667 20.7358 6.1524 21.5992 6.65188C21.8542 6.79937 21.9413 7.12563 21.7938 7.38059C21.6463 7.63556 21.3201 7.72269 21.0651 7.5752C20.3596 7.1671 19.5407 6.93337 18.6655 6.93337Z" fill="#69AFDC"/>
<path fill-rule="evenodd" clip-rule="evenodd" d="M12.7969 29.2754C12.8288 29.5683 12.6172 29.8315 12.3244 29.8634C8.92395 30.2337 6.04445 30.8904 4.03112 31.716C3.02244 32.1296 2.25995 32.574 1.75849 33.0236C1.25598 33.4741 1.06667 33.8807 1.06667 34.2322C1.06667 34.6868 1.38968 35.2358 2.25898 35.8291C3.11074 36.4104 4.37821 36.9551 5.99238 37.421C9.21356 38.3508 13.6948 38.9332 18.6667 38.9332C23.6386 38.9332 28.1198 38.3508 31.341 37.421C32.9552 36.9551 34.2226 36.4104 35.0744 35.8291C35.9437 35.2358 36.2667 34.6868 36.2667 34.2322C36.2667 33.8807 36.0774 33.4741 35.5749 33.0236C35.0734 32.574 34.3109 32.1296 33.3023 31.716C31.2889 30.8904 28.4094 30.2337 25.009 29.8634C24.7161 29.8315 24.5046 29.5683 24.5365 29.2754C24.5684 28.9826 24.8316 28.7711 25.1244 28.803C28.5806 29.1794 31.5677 29.8519 33.7069 30.7291C34.7745 31.1668 35.6598 31.6671 36.287 32.2294C36.9131 32.7908 37.3334 33.4634 37.3334 34.2322C37.3334 35.223 36.6416 36.051 35.6757 36.7102C34.6922 37.3813 33.3041 37.9646 31.6368 38.4458C28.295 39.4105 23.7095 39.9999 18.6667 39.9999C13.6238 39.9999 9.03837 39.4105 5.69656 38.4458C4.02924 37.9646 2.64114 37.3813 1.6577 36.7102C0.691811 36.051 0 35.223 0 34.2322C0 33.4634 0.42028 32.7908 1.04643 32.2294C1.67363 31.6671 2.55887 31.1668 3.62645 30.7291C5.76564 29.8519 8.75282 29.1794 12.2089 28.803C12.5018 28.7711 12.765 28.9826 12.7969 29.2754Z" fill="#747F8B"/>
<path fill-rule="evenodd" clip-rule="evenodd" d="M27.6025 17.3866C28.6941 15.0756 29.3336 13.0998 29.3336 11.7334C29.3336 5.84231 24.558 1.06667 18.6669 1.06667C12.7759 1.06667 8.00026 5.84231 8.00026 11.7334C8.00026 13.0998 8.6398 15.0756 9.73141 17.3866C10.8043 19.6579 12.2444 22.1129 13.6991 24.389C15.1513 26.6615 16.6055 28.7362 17.6975 30.244C18.0673 30.7546 18.3952 31.1996 18.6669 31.5646C18.9387 31.1996 19.2666 30.7546 19.6364 30.244C20.7284 28.7362 22.1826 26.6615 23.6348 24.389C25.0894 22.1129 26.5296 19.6579 27.6025 17.3866ZM19.3353 32.4523C21.8226 29.1308 30.4003 17.274 30.4003 11.7334C30.4003 5.2532 25.1471 0 18.6669 0C12.1868 0 6.93359 5.2532 6.93359 11.7334C6.93359 17.274 15.5113 29.1308 17.9986 32.4523C18.4203 33.0156 18.6669 33.3334 18.6669 33.3334C18.6669 33.3334 18.9136 33.0156 19.3353 32.4523Z" fill="#747F8B"/>
</svg>
