<svg width="31" height="40" viewBox="0 0 31 40" fill="none" xmlns="http://www.w3.org/2000/svg">
<path fill-rule="evenodd" clip-rule="evenodd" d="M15.6278 0L30.4679 8.41112L30.5089 8.76556C33.0378 30.6253 21.9347 38.7229 15.7596 39.9707L15.6148 40L15.4708 39.9671C7.81461 38.2156 3.718 32.5459 1.71129 26.3023C-0.289557 20.0768 -0.250817 13.1933 0.394878 8.74525L0.444931 8.40045L15.6278 0ZM1.7174 9.29195C1.14108 13.5961 1.16121 20.0596 3.02868 25.87C4.92744 31.7778 8.69809 36.9233 15.6313 38.5683C21.0134 37.3898 31.4508 30.0665 29.173 9.2818L15.6197 1.60001L1.7174 9.29195Z" fill="#747F8B"/>
<path fill-rule="evenodd" clip-rule="evenodd" d="M23.3658 16.0083L13.8552 24.8781L8.88379 19.4689L9.89879 18.5166L13.9305 22.9034L22.4263 14.98L23.3658 16.0083Z" fill="#69AFDC"/>
</svg>
