<svg width="18" height="24" viewBox="0 0 18 24" fill="none" xmlns="http://www.w3.org/2000/svg">
<path d="M2.99999 13C3.55227 13 3.99998 12.5522 3.99998 12C3.99998 11.4477 3.55227 11 2.99999 11C2.44771 11 2 11.4477 2 12C2 12.5522 2.44771 13 2.99999 13Z" fill="white"/>
<path d="M8.99998 13C9.55225 13 9.99995 12.5522 9.99995 12C9.99995 11.4477 9.55225 11 8.99998 11C8.4477 11 8 11.4477 8 12C8 12.5522 8.4477 13 8.99998 13Z" fill="white"/>
<path d="M15 13C15.5523 13 16 12.5522 16 12C16 11.4477 15.5523 11 15 11C14.4477 11 14 11.4477 14 12C14 12.5522 14.4477 13 15 13Z" fill="white"/>
<path d="M9 0C3.89109 0 0 9.99998 0 15.0044C0 19.9643 4.03758 24 9 24C13.9624 24 18 19.9643 18 15.0044C18 9.99998 14.1089 0 9 0ZM3.43945 6.09473C5.1045 2.84963 7.13133 0.988266 9 0.988266C10.8687 0.988266 12.8955 2.84958 14.5605 6.09473C14.5743 6.12145 14.5863 6.15042 14.5999 6.17723C14.2655 6.288 13.9999 6.43439 13.7632 6.5737C13.3584 6.81197 13.0381 6.99998 12.3408 6.99998C11.6465 6.99998 11.331 6.81103 10.9321 6.57127C10.4858 6.3037 9.98048 6 9.00881 6C8.03714 6 7.53178 6.3037 7.08548 6.57131C6.68658 6.81056 6.37111 7.00003 5.67628 7.00003C4.97705 7.00003 4.65628 6.81155 4.25002 6.57328C4.01039 6.4327 3.74133 6.28495 3.40162 6.174C3.41475 6.14813 3.42628 6.12042 3.43945 6.09473ZM9 22.9883C5.62153 22.9883 2.73202 20.881 1.56117 17.9152C1.78491 17.9638 2.0287 18 2.32767 18C3.29887 18 3.8047 17.6963 4.25053 17.4287C4.64944 17.1889 4.96491 17 5.65922 17C6.35353 17 6.669 17.1889 7.06791 17.4287C7.5142 17.6963 8.01956 18 8.99123 18C9.96291 18 10.4683 17.6963 10.9146 17.4287C11.3135 17.1894 11.6289 17 12.3238 17C13.02 17 13.336 17.1894 13.7359 17.4287C14.1826 17.6968 14.689 18 15.6622 18C15.9656 18 16.2128 17.9628 16.4398 17.9128C15.2695 20.88 12.3794 22.9883 9 22.9883ZM15.6621 17C14.9658 17 14.6499 16.8105 14.2495 16.5708C13.8028 16.3033 13.2964 16 12.3238 16C11.3521 16 10.8462 16.3037 10.3999 16.5713C10.001 16.8111 9.68555 17.0001 8.99123 17.0001C8.29692 17.0001 7.98145 16.8111 7.58255 16.5713C7.13625 16.3038 6.63089 16 5.65922 16C4.68755 16 4.18219 16.3037 3.73589 16.5713C3.33698 16.8111 3.02203 17.0001 2.32767 17.0001C1.80159 17.0001 1.49016 16.885 1.19461 16.725C1.07053 16.1665 1.00003 15.5881 1.00003 14.9927C1.00003 12.7934 1.7745 9.73186 2.96831 7.08202C3.27277 7.15917 3.4958 7.28995 3.74419 7.43559C4.19438 7.70025 4.70512 8.00006 5.67633 8.00006C6.648 8.00006 7.15387 7.69636 7.60017 7.42875C7.99908 7.18898 8.31455 7.00003 9.00886 7.00003C9.70317 7.00003 10.0186 7.18898 10.4175 7.42875C10.8638 7.69631 11.3692 8.00006 12.3409 8.00006C13.3106 8.00006 13.8204 7.70025 14.2701 7.43559C14.5148 7.29159 14.7353 7.1625 15.0332 7.08506C16.2262 9.73416 17 12.7943 17 14.9927C17 15.5867 16.9299 16.1639 16.8064 16.7213C16.5067 16.8834 16.1921 17 15.6621 17Z" fill="white"/>
</svg>
