<svg width="22" height="26" viewBox="0 0 22 26" fill="none" xmlns="http://www.w3.org/2000/svg">
<path d="M18.071 4.01332C16.1823 2.07013 13.6711 1 11 1C8.32884 1 5.8177 2.07013 3.92893 4.01332C2.04015 5.95652 1 8.54003 1 11.2881C1 15.7897 7.13513 22.0326 9.7729 24.5077C10.1227 24.8359 10.5613 25 11 25C11.4386 25 11.8774 24.8358 12.2271 24.5077C14.8648 22.0325 21 15.7897 21 11.2881C20.9999 8.54003 19.9598 5.95648 18.071 4.01332ZM11.7672 23.9891C11.3298 24.3995 10.6701 24.3995 10.2327 23.9891C9.08589 22.913 6.88287 20.7468 5.01352 18.3295C2.80308 15.4711 1.68228 13.1021 1.68228 11.2881C1.68228 6.00229 5.86218 1.70194 11 1.70194C16.1377 1.70194 20.3176 6.00229 20.3176 11.2881C20.3176 13.1021 19.1968 15.4711 16.9864 18.3295C15.117 20.7468 12.9141 22.913 11.7672 23.9891Z" fill="#102A41"/>
<path d="M12.6456 18.0814C12.1092 18.2185 11.5556 18.288 11 18.288C8.34144 18.288 6.03452 16.7109 4.91572 14.4185L7.217 12.4578C7.3621 12.3341 7.38234 12.1129 7.26217 11.9636C7.14195 11.8144 6.92694 11.7935 6.78184 11.9171L4.63099 13.7497C4.3503 12.9835 4.19624 12.154 4.19624 11.2881C4.19624 7.42835 7.24843 4.2882 11 4.2882C12.8344 4.2882 14.5544 5.02837 15.8433 6.37244C15.9756 6.51035 16.1916 6.51185 16.3257 6.37577C16.4599 6.23964 16.4613 6.0174 16.3289 5.87945C14.9108 4.40065 13.0183 3.58627 11 3.58627C6.87218 3.58627 3.51392 7.0413 3.51392 11.2881C3.51392 15.5348 6.87218 18.9899 11 18.9899C11.611 18.9899 12.22 18.9134 12.8102 18.7625C12.993 18.7158 13.1044 18.5255 13.059 18.3373C13.0135 18.1492 12.8285 18.0345 12.6456 18.0814Z" fill="#102A41"/>
<path d="M17.2835 7.10068C17.1809 6.93802 16.9696 6.89188 16.8116 6.99736C16.6535 7.10288 16.6086 7.3202 16.7112 7.48282C17.426 8.61584 17.8038 9.93169 17.8038 11.2881C17.8038 11.5376 17.7908 11.7858 17.7655 12.0318L15.9275 10.5206C15.6071 10.2571 15.1452 10.2613 14.8293 10.5304L13.1302 11.9781L10.416 9.74642C10.0956 9.48306 9.63376 9.48722 9.31787 9.7563L6.30703 12.3203C6.16194 12.444 6.1417 12.6652 6.26187 12.8145C6.38204 12.9639 6.59709 12.9846 6.74219 12.8609L9.75302 10.2969C9.82121 10.2388 9.92091 10.238 9.99005 10.2948L12.9191 12.7031C12.9201 12.704 12.9211 12.7048 12.9221 12.7056L16.3908 15.5577C15.7436 16.422 14.9103 17.1211 13.9516 17.5968C13.7819 17.681 13.7106 17.8908 13.7925 18.0654C13.8513 18.1909 13.9731 18.264 14.1 18.264C14.1497 18.264 14.2002 18.2528 14.2479 18.2291C15.4986 17.6085 16.5564 16.6436 17.3071 15.4384C18.0784 14.2004 18.486 12.7652 18.486 11.2881C18.486 9.79575 18.0702 8.34779 17.2835 7.10068ZM16.7806 14.9797L13.6746 12.4257L15.2646 11.071C15.3327 11.013 15.4324 11.012 15.5016 11.0689L17.6381 12.8256C17.4724 13.5855 17.1837 14.3129 16.7806 14.9797Z" fill="#102A41"/>
<path d="M11.7658 8.15668C11.7658 8.93283 12.3796 9.56425 13.134 9.56425C13.8884 9.56425 14.5021 8.93283 14.5021 8.15668C14.5021 7.38052 13.8884 6.7491 13.134 6.7491C12.3796 6.7491 11.7658 7.38052 11.7658 8.15668ZM13.8199 8.15668C13.8199 8.54574 13.5122 8.86231 13.134 8.86231C12.7559 8.86231 12.4482 8.54574 12.4482 8.15668C12.4482 7.76762 12.7559 7.45104 13.134 7.45104C13.5122 7.45104 13.8199 7.76757 13.8199 8.15668Z" fill="#102A41"/>
<path fill-rule="evenodd" clip-rule="evenodd" d="M11.0227 18.25C14.7595 18.25 17.7887 15.1335 17.7887 11.2891C17.7887 7.44464 14.7595 4.32812 11.0227 4.32812C7.28599 4.32812 4.25677 7.44464 4.25677 11.2891C4.25677 15.1335 7.28599 18.25 11.0227 18.25ZM11.0227 19C15.1621 19 18.5177 15.5477 18.5177 11.2891C18.5177 7.03043 15.1621 3.57812 11.0227 3.57812C6.88338 3.57812 3.52777 7.03043 3.52777 11.2891C3.52777 15.5477 6.88338 19 11.0227 19Z" fill="#102A41"/>
<path d="M18.071 4.01332C16.1823 2.07013 13.6711 1 11 1C8.32884 1 5.8177 2.07013 3.92893 4.01332C2.04015 5.95652 1 8.54003 1 11.2881C1 15.7897 7.13513 22.0326 9.7729 24.5077C10.1227 24.8359 10.5613 25 11 25C11.4386 25 11.8774 24.8358 12.2271 24.5077C14.8648 22.0325 21 15.7897 21 11.2881C20.9999 8.54003 19.9598 5.95648 18.071 4.01332ZM11.7672 23.9891C11.3298 24.3995 10.6701 24.3995 10.2327 23.9891C9.08589 22.913 6.88287 20.7468 5.01352 18.3295C2.80308 15.4711 1.68228 13.1021 1.68228 11.2881C1.68228 6.00229 5.86218 1.70194 11 1.70194C16.1377 1.70194 20.3176 6.00229 20.3176 11.2881C20.3176 13.1021 19.1968 15.4711 16.9864 18.3295C15.117 20.7468 12.9141 22.913 11.7672 23.9891Z" stroke="#102A41" stroke-width="0.2"/>
<path d="M12.6456 18.0814C12.1092 18.2185 11.5556 18.288 11 18.288C8.34144 18.288 6.03452 16.7109 4.91572 14.4185L7.217 12.4578C7.3621 12.3341 7.38234 12.1129 7.26217 11.9636C7.14195 11.8144 6.92694 11.7935 6.78184 11.9171L4.63099 13.7497C4.3503 12.9835 4.19624 12.154 4.19624 11.2881C4.19624 7.42835 7.24843 4.2882 11 4.2882C12.8344 4.2882 14.5544 5.02837 15.8433 6.37244C15.9756 6.51035 16.1916 6.51185 16.3257 6.37577C16.4599 6.23964 16.4613 6.0174 16.3289 5.87945C14.9108 4.40065 13.0183 3.58627 11 3.58627C6.87218 3.58627 3.51392 7.0413 3.51392 11.2881C3.51392 15.5348 6.87218 18.9899 11 18.9899C11.611 18.9899 12.22 18.9134 12.8102 18.7625C12.993 18.7158 13.1044 18.5255 13.059 18.3373C13.0135 18.1492 12.8285 18.0345 12.6456 18.0814Z" stroke="#102A41" stroke-width="0.2"/>
<path d="M17.2835 7.10068C17.1809 6.93802 16.9696 6.89188 16.8116 6.99736C16.6535 7.10288 16.6086 7.3202 16.7112 7.48282C17.426 8.61584 17.8038 9.93169 17.8038 11.2881C17.8038 11.5376 17.7908 11.7858 17.7655 12.0318L15.9275 10.5206C15.6071 10.2571 15.1452 10.2613 14.8293 10.5304L13.1302 11.9781L10.416 9.74642C10.0956 9.48306 9.63376 9.48722 9.31787 9.7563L6.30703 12.3203C6.16194 12.444 6.1417 12.6652 6.26187 12.8145C6.38204 12.9639 6.59709 12.9846 6.74219 12.8609L9.75302 10.2969C9.82121 10.2388 9.92091 10.238 9.99005 10.2948L12.9191 12.7031C12.9201 12.704 12.9211 12.7048 12.9221 12.7056L16.3908 15.5577C15.7436 16.422 14.9103 17.1211 13.9516 17.5968C13.7819 17.681 13.7106 17.8908 13.7925 18.0654C13.8513 18.1909 13.9731 18.264 14.1 18.264C14.1497 18.264 14.2002 18.2528 14.2479 18.2291C15.4986 17.6085 16.5564 16.6436 17.3071 15.4384C18.0784 14.2004 18.486 12.7652 18.486 11.2881C18.486 9.79575 18.0702 8.34779 17.2835 7.10068ZM16.7806 14.9797L13.6746 12.4257L15.2646 11.071C15.3327 11.013 15.4324 11.012 15.5016 11.0689L17.6381 12.8256C17.4724 13.5855 17.1837 14.3129 16.7806 14.9797Z" stroke="#102A41" stroke-width="0.2"/>
<path d="M11.7658 8.15668C11.7658 8.93283 12.3796 9.56425 13.134 9.56425C13.8884 9.56425 14.5021 8.93283 14.5021 8.15668C14.5021 7.38052 13.8884 6.7491 13.134 6.7491C12.3796 6.7491 11.7658 7.38052 11.7658 8.15668ZM13.8199 8.15668C13.8199 8.54574 13.5122 8.86231 13.134 8.86231C12.7559 8.86231 12.4482 8.54574 12.4482 8.15668C12.4482 7.76762 12.7559 7.45104 13.134 7.45104C13.5122 7.45104 13.8199 7.76757 13.8199 8.15668Z" stroke="#102A41" stroke-width="0.2"/>
<path fill-rule="evenodd" clip-rule="evenodd" d="M11.0227 18.25C14.7595 18.25 17.7887 15.1335 17.7887 11.2891C17.7887 7.44464 14.7595 4.32812 11.0227 4.32812C7.28599 4.32812 4.25677 7.44464 4.25677 11.2891C4.25677 15.1335 7.28599 18.25 11.0227 18.25ZM11.0227 19C15.1621 19 18.5177 15.5477 18.5177 11.2891C18.5177 7.03043 15.1621 3.57812 11.0227 3.57812C6.88338 3.57812 3.52777 7.03043 3.52777 11.2891C3.52777 15.5477 6.88338 19 11.0227 19Z" stroke="#102A41" stroke-width="0.2"/>
</svg>
