<svg width="24" height="24" viewBox="0 0 24 24" fill="none" xmlns="http://www.w3.org/2000/svg">
<g clip-path="url(#clip0)">
<path d="M21.0934 10.5916H2.907C1.93623 10.5916 1.14648 11.3813 1.14648 12.3521V14.9304C1.14648 18.3493 3.67722 21.3916 7.0453 22.0056C6.49255 22.8527 7.12441 24 8.12706 24H15.8733C16.876 24 17.5079 22.8527 16.9551 22.0056C20.323 21.3916 22.8539 18.3511 22.8539 14.9304V12.3521C22.8539 11.3813 22.0641 10.5916 21.0934 10.5916ZM2.907 11.2958H21.0934C21.6759 11.2958 22.1497 11.7696 22.1497 12.3521V12.8976H5.10648L5.45858 13.2497L5.10648 13.6018H22.1497V14.9304C22.1497 15.8332 21.9641 16.6933 21.6295 17.4751H2.37087C2.03623 16.6933 1.85069 15.8332 1.85069 14.9304V13.6018H5.10648C5.30093 13.6018 5.45858 13.4442 5.45858 13.2497C5.45858 13.0552 5.30093 12.8976 5.10648 12.8976H1.85069V12.3521C1.85069 11.7696 2.32453 11.2958 2.907 11.2958ZM15.6621 21.418H15.0067C14.8122 21.418 14.6546 21.5756 14.6546 21.7701C14.6546 21.9646 14.8122 22.1222 15.0067 22.1222C15.0067 22.1222 15.8605 22.1222 15.8733 22.1222C16.6319 22.1222 16.6319 23.2958 15.8733 23.2958H8.12706C7.36849 23.2958 7.36849 22.1222 8.12706 22.1222C8.13987 22.1222 15.0067 22.1222 15.0067 22.1222L14.6546 21.7701L15.0067 21.418H8.33832C5.94401 21.418 3.84872 20.1141 2.72461 18.1793H21.2758C20.1517 20.1142 18.0564 21.418 15.6621 21.418Z" fill="#102A41"/>
<path d="M6.87273 7.78554C7.02366 8.69364 7.80153 9.35268 8.72235 9.35268H12.7415C13.5099 9.35268 13.886 9.09025 14.2438 8.66683C14.2474 8.66251 16.1393 6.19319 16.1393 6.19319C17.0841 4.95956 18.4407 4.09803 19.9594 3.76729L21.7546 3.37631C22.4784 3.21885 22.9623 2.50873 22.8333 1.79307C22.7028 1.07097 21.9553 0.533849 21.1965 0.698962L19.2175 1.13088L20.4892 1.21313L19.3795 1.81616L21.3463 1.38707C21.7614 1.33895 22.026 1.51598 22.1402 1.91813C22.2027 2.26493 21.9626 2.61037 21.6048 2.68816L19.8095 3.07918C18.1282 3.44537 16.6262 4.39915 15.5802 5.76494L13.7005 8.21863C13.4481 8.5158 13.2477 8.64848 12.7415 8.64848H8.72231C8.1473 8.64848 7.66158 8.23699 7.56731 7.66991L7.41938 6.78299C7.40675 6.49947 7.54135 6.34074 7.82327 6.30671H13.3203C13.4299 6.30671 13.5332 6.25572 13.5998 6.16878L14.527 4.95843C15.7304 3.38749 17.4537 2.27155 19.3795 1.81616L20.4892 1.21313L19.2175 1.13088C17.1342 1.62349 15.2698 2.83074 13.968 4.53018L13.1465 5.60255H7.82336C7.05648 5.69527 6.69034 6.12742 6.72489 6.8989L6.87273 7.78554Z" fill="#102A41"/>
<path d="M9.6979 4.10585C9.86254 4.49987 10.5424 4.30025 10.3476 3.83435C10.0796 3.19296 10.203 2.90813 10.3591 2.54743C10.5389 2.13219 10.7626 1.61539 10.3441 0.680721C10.2646 0.503308 10.0564 0.423685 9.87888 0.503308C9.70142 0.582742 9.62194 0.791047 9.70142 0.968554C9.99319 1.62018 9.87559 1.89177 9.71287 2.26763C9.53532 2.67771 9.31439 3.18808 9.6979 4.10585Z" fill="#102A41"/>
<path d="M7.41081 3.63343C7.57545 4.02746 8.25529 3.82784 8.06056 3.36194C7.79254 2.72055 7.91587 2.43572 8.07201 2.07502C8.25177 1.65977 8.47552 1.14298 8.05704 0.208309C7.9776 0.0308957 7.7693 -0.0487267 7.59179 0.0308957C7.41433 0.11033 7.33485 0.318635 7.41433 0.496142C7.70611 1.14777 7.5885 1.41936 7.42578 1.79522C7.24823 2.2053 7.02725 2.71566 7.41081 3.63343Z" fill="#102A41"/>
<path d="M11.985 3.63343C12.1497 4.02746 12.8295 3.82784 12.6348 3.36194C12.3668 2.72055 12.4901 2.43572 12.6462 2.07502C12.826 1.65977 13.0498 1.14298 12.6313 0.208309C12.5518 0.0308957 12.3436 -0.0487267 12.166 0.0308957C11.9886 0.11033 11.9091 0.318635 11.9886 0.496142C12.2803 1.14777 12.1627 1.41936 12 1.79522C11.8224 2.2053 11.6015 2.71566 11.985 3.63343Z" fill="#102A41"/>
</g>
<defs>
<clipPath id="clip0">
<rect width="24" height="24" fill="white"/>
</clipPath>
</defs>
</svg>
