<svg width="10" height="10" viewBox="0 0 10 10" fill="none" xmlns="http://www.w3.org/2000/svg">
<path fill-rule="evenodd" clip-rule="evenodd" d="M2.8302 10C1.26709 10 0 8.73288 0 7.16981V2.83019C0 1.26712 1.26709 0 2.8302 0H7.1698C8.73291 0 10 1.26712 10 2.83019V7.16981C10 8.73288 8.73291 10 7.1698 10H2.8302ZM7.5 5.625C7.5 7.12077 6.28743 8.33333 4.79167 8.33333C3.2959 8.33333 2.08333 7.12077 2.08333 5.625C2.08333 4.12923 3.2959 2.91667 4.79167 2.91667C6.28743 2.91667 7.5 4.12923 7.5 5.625ZM7.5 3.33333C7.96021 3.33333 8.33333 2.96024 8.33333 2.5C8.33333 2.03976 7.96021 1.66667 7.5 1.66667C7.03979 1.66667 6.66667 2.03976 6.66667 2.5C6.66667 2.96024 7.03979 3.33333 7.5 3.33333Z" fill="#D1D8DE"/>
</svg>
